<?xml version="1.0" encoding="utf-8"?>
<!-- Generator: Adobe Illustrator 15.0.2, SVG Export Plug-In . SVG Version: 6.00 Build 0)  -->
<!DOCTYPE svg PUBLIC "-//W3C//DTD SVG 1.1//EN" "http://www.w3.org/Graphics/SVG/1.1/DTD/svg11.dtd">
<svg version="1.1" id="Layer_1" xmlns="http://www.w3.org/2000/svg" xmlns:xlink="http://www.w3.org/1999/xlink" x="0px" y="0px"
	 width="512px" height="575.991px" viewBox="0 0 512 575.991" enable-background="new 0 0 512 575.991" xml:space="preserve">
<g>
	<path fill="#231F20" d="M0,0l47.995,520.002l208.001,55.989l207.993-55.989L512,0H0z M408.905,168.531l-153.095,65.452l-0.37,0.157
		h0.37h147.692l-16.941,194.73l-130.519,38.11l-0.232-0.078v0.078L124.58,428.17l-8.471-98.07h0.229h64.681h0.231l4.233,50.799
		l69.729,17.61l0.598-0.173v0.079l72.202-20.328l4.938-81.838l-77.141-0.235l-143.935-0.489l-4.934-61.376l148.868-62.007
		l8.676-3.603h-8.676H101.295l-7.766-62.81h162.281h159.45L408.905,168.531z"/>
</g>
</svg>
